<svg width="369" height="174" viewBox="0 0 369 174" fill="none" xmlns="http://www.w3.org/2000/svg">
    <g filter="url(#filter0_f_1517_60594)">
        <path
            d="M151.881 194.753C151.881 246.499 138.61 270 86.9674 270C35.3244 270 -11 217.346 -11 165.6C-11 113.853 27.6104 137.298 79.2534 137.298C130.896 137.298 151.881 194.753 151.881 194.753Z"
            fill="#017BFF" />
    </g>
    <g filter="url(#filter1_f_1517_60594)">
        <path
            d="M176.559 160.476C216.703 155.525 232.757 157.757 237.698 197.899C226.652 236.329 203.851 254.056 163.707 259.007C156.011 217.844 144.327 247.534 139.386 207.392C134.445 167.249 176.559 160.476 176.559 160.476Z"
            fill="#DB01FF" />
    </g>
    <defs>
        <filter id="filter0_f_1517_60594" x="-142.3" y="0.699997" width="425.481" height="400.6"
            filterUnits="userSpaceOnUse" color-interpolation-filters="sRGB">
            <feFlood flood-opacity="0" result="BackgroundImageFix" />
            <feBlend mode="normal" in="SourceGraphic" in2="BackgroundImageFix" result="shape" />
            <feGaussianBlur stdDeviation="65.65" result="effect1_foregroundBlur_1517_60594" />
        </filter>
        <filter id="filter1_f_1517_60594" x="7.68303" y="27.2732" width="361.315" height="363.034"
            filterUnits="userSpaceOnUse" color-interpolation-filters="sRGB">
            <feFlood flood-opacity="0" result="BackgroundImageFix" />
            <feBlend mode="normal" in="SourceGraphic" in2="BackgroundImageFix" result="shape" />
            <feGaussianBlur stdDeviation="65.65" result="effect1_foregroundBlur_1517_60594" />
        </filter>
    </defs>
</svg>
    